<svg xmlns="http://www.w3.org/2000/svg" xmlns:xlink="http://www.w3.org/1999/xlink" width="47.609" height="54" viewBox="0 0 47.609 54"><defs><style>.a{fill:url(#a);}</style><linearGradient id="a" y1="0.5" x2="0.929" y2="0.5" gradientUnits="objectBoundingBox"><stop offset="0" stop-color="#379ab2"/><stop offset="1" stop-color="#00c6bf"/></linearGradient></defs><path class="a" d="M28.351,0a.844.844,0,0,0-.844.844V7.5c-.493-.208-.9-.61-1.45-.61a4.06,4.06,0,0,0,0,8.12c.546,0,.957-.4,1.45-.613v6.663a.844.844,0,0,0,.844.844H36.2a.844.844,0,0,0,.567-1.47l-.039-.039c-.047-.049-.093-.1-.138-.158h0c-.05-.064-.1-.125-.138-.191h0a2.206,2.206,0,0,1-.115-.2,2.347,2.347,0,0,1-.1-.217h0a2.318,2.318,0,0,1-.073-.221c-.021-.076-.039-.154-.053-.231s-.024-.153-.03-.231c0-.056-.007-.111-.007-.165a2.339,2.339,0,0,1,.013-.237,2.363,2.363,0,0,1,.036-.234c.016-.078.036-.155.059-.231a2.164,2.164,0,0,1,.079-.217c.032-.074.065-.143.1-.211a2.274,2.274,0,0,1,.125-.2c.045-.066.091-.128.142-.188a2.361,2.361,0,0,1,.162-.175,2.3,2.3,0,0,1,.175-.152h.007c.061-.047.124-.093.188-.135h0a2.3,2.3,0,0,1,.2-.115h0c.069-.035.139-.067.211-.1h0c.073-.029.149-.054.234-.079a1.761,1.761,0,0,1,.208-.046h.013a1.926,1.926,0,0,1,.241-.033.459.459,0,0,0,.158-.016h.191c.14.022.232.031.277.04.087.019.162.039.231.059a2.254,2.254,0,0,1,.221.082c.069.03.14.067.211.105s.142.083.2.125a2.291,2.291,0,0,1,.188.142h0a2.1,2.1,0,0,1,.175.161c.055.057.106.116.155.178s.094.126.135.191h0a2.222,2.222,0,0,1,.115.2c.036.071.067.142.1.214h0c.028.071.051.145.073.221s.039.154.053.231a2.324,2.324,0,0,1,.03.234c0,.056.007.109.007.165a2.412,2.412,0,0,1-.049.471c-.016.078-.036.159-.059.234a2.278,2.278,0,0,1-.079.221c-.031.073-.066.145-.1.211a2.467,2.467,0,0,1-.267.392c-.045.054-.1.107-.158.168a.844.844,0,0,0,.593,1.443h7.843a.844.844,0,0,0,.844-.844V.855a.844.844,0,0,0-.844-.844H40.682V0H28.351ZM40.685,1.685h7V20.211H42.22c.032-.084.065-.169.092-.257.04-.13.073-.259.1-.389s.046-.266.059-.4a4.017,4.017,0,0,0,.023-.405c0-.1,0-.189-.01-.283q-.015-.2-.049-.4a4.01,4.01,0,0,0-.089-.392c-.036-.128-.079-.259-.129-.386a4.065,4.065,0,0,0-.366-.715h0c-.073-.113-.149-.219-.231-.323h0c-.083-.1-.171-.206-.264-.3h0c-.1-.1-.2-.189-.3-.274h0c-.1-.088-.21-.167-.316-.241h0c-.114-.078-.226-.148-.339-.211h-.01c-.113-.061-.231-.121-.356-.175a3.654,3.654,0,0,0-.382-.138c-.137-.042-.269-.075-.392-.1-.165-.035-.283-.048-.356-.059a2.841,2.841,0,0,0-.451-.026h0c-.2,0-.277.016-.227.016h-.066c-.129.017-.258.028-.386.049a3.331,3.331,0,0,0-.405.089h-.01c-.121.035-.246.076-.372.125a3.871,3.871,0,0,0-.372.168h0c-.121.062-.234.132-.343.2h-.007c-.112.073-.22.15-.323.231h-.007c-.105.084-.2.174-.3.267s-.193.2-.28.3-.169.21-.244.32a4.041,4.041,0,0,0-.211.346c-.066.12-.123.242-.175.363h0a3.914,3.914,0,0,0-.138.379,4.041,4.041,0,0,0-.1.392,3.988,3.988,0,0,0-.059.4c-.014.133-.023.267-.023.4,0,.1,0,.192.01.287q.015.2.049.4c.023.132.053.263.089.392s.078.245.125.366H29.194V13.206a.844.844,0,0,0-1.447-.59,2.368,2.368,0,1,1-1.691-4.027h0a2.354,2.354,0,0,1,1.687.709.844.844,0,0,0,1.447-.59V1.692H40.685ZM18.092,26.545a4.083,4.083,0,0,0-3.879,3.648,3.343,3.343,0,0,0,.214,1.895H8.141a.844.844,0,0,0-.844.844v6.357A4,4,0,0,0,2.2,41.3a4.044,4.044,0,0,0,3.045,5.757A4.023,4.023,0,0,0,7.3,46.791v6.36a.844.844,0,0,0,.844.844h7.846a.844.844,0,0,0,.564-1.47,2.434,2.434,0,0,1,.577-3.773q.03-.015.059-.033a2.413,2.413,0,0,1,3.345,1.572q0,.018.007.036a2.422,2.422,0,0,1-.649,2.2.844.844,0,0,0,.583,1.453h7.757A.844.844,0,0,0,28.37,54h7.846a.844.844,0,0,0,.567-1.47,2.436,2.436,0,0,1,.573-3.776q.03-.015.059-.033a2.413,2.413,0,0,1,3.345,1.572q0,.018.01.036a2.422,2.422,0,0,1-.649,2.2.844.844,0,0,0,.583,1.453h7.708a.844.844,0,0,0,.475-.073l.023-.016a.844.844,0,0,0,.461-.939V45.279a.844.844,0,0,0-1.453-.583,2.4,2.4,0,0,1-2.04.685h-.033a2.436,2.436,0,0,1-1.756-3.345q.016-.029.03-.059a2.414,2.414,0,0,1,3.783-.623.844.844,0,0,0,1.47-.567V33.32l-.217.181a.844.844,0,0,0-.606-1.43h-6.34a4.009,4.009,0,0,0-2-5.108,3.745,3.745,0,0,0-1.885-.419,4.08,4.08,0,0,0-3.875,3.641,3.34,3.34,0,0,0,.211,1.9h-6.2a.844.844,0,0,0-.142-.01h-6.34a4.007,4.007,0,0,0-2-5.108,3.735,3.735,0,0,0-1.885-.419Zm.076,1.72a1.926,1.926,0,0,1,1.058.2q.029.018.059.033a2.43,2.43,0,0,1,.619,3.8.844.844,0,0,0,.567,1.466h7.055v5.523a4,4,0,0,0-5.094,2,4.044,4.044,0,0,0,3.042,5.763,3.887,3.887,0,0,0,2.053-.26v5.5H21.935a3.942,3.942,0,0,0,.247-2.33A4.041,4.041,0,1,0,14.471,52.3H8.984V45.285A.844.844,0,0,0,7.531,44.7a2.4,2.4,0,0,1-2.04.686H5.455A2.435,2.435,0,0,1,3.7,42.043q.014-.029.026-.059a2.418,2.418,0,0,1,3.786-.623.844.844,0,0,0,1.47-.567V33.778h6.923a.844.844,0,0,0,.672-1.354,3.576,3.576,0,0,1-.718-1.944.843.843,0,0,0,.013-.115A2.484,2.484,0,0,1,18.168,28.265Zm20.233,0a1.927,1.927,0,0,1,1.058.2v-.007l.059.03a2.43,2.43,0,0,1,.616,3.8.844.844,0,0,0,.57,1.466h6.979v5.53a4,4,0,0,0-5.1,2,4,4,0,0,0,5.1,5.5V52.3H42.168a3.941,3.941,0,0,0,.247-2.33,4.041,4.041,0,1,0-7.711,2.34h-5.49V45.289a.844.844,0,0,0-1.45-.583,2.4,2.4,0,0,1-2.04.685h-.036a2.436,2.436,0,0,1-1.756-3.345q.016-.029.03-.059a2.418,2.418,0,0,1,3.786-.623.844.844,0,0,0,1.466-.567V33.781h6.927a.844.844,0,0,0,.669-1.354,3.577,3.577,0,0,1-.718-1.944.844.844,0,0,0,.017-.115A2.485,2.485,0,0,1,38.4,28.268Z" transform="translate(-1.782 0.002)"/></svg>