<svg xmlns="http://www.w3.org/2000/svg" xmlns:xlink="http://www.w3.org/1999/xlink" width="52.98" height="54" viewBox="0 0 52.98 54"><defs><style>.a{fill-rule:evenodd;fill:url(#a);}</style><linearGradient id="a" y1="0.5" x2="0.893" y2="0.5" gradientUnits="objectBoundingBox"><stop offset="0" stop-color="#379ab2"/><stop offset="1" stop-color="#00c6bf"/></linearGradient></defs><path class="a" d="M28.471,1.461a5.223,5.223,0,0,0-3.847,8.714,6.757,6.757,0,0,0-5.6,6.567V20.43a.946.946,0,0,0,.946.946h3.563a.946.946,0,0,0,.436,0H33a.946.946,0,0,0,.436,0H37a.946.946,0,0,0,.946-.946V16.742a6.757,6.757,0,0,0-5.628-6.571,5.221,5.221,0,0,0-3.851-8.711Zm0,1.892a3.309,3.309,0,0,1,3.3,3.348,3.3,3.3,0,1,1-6.589,0A3.306,3.306,0,0,1,28.471,3.353Zm6.438,1.892-.473,1.833.791.2,2.107.769.484.237.824-1.707-.536-.255-.085-.037-2.173-.795-.089-.03Zm-13.578.218-.979.288-.07.026L18.59,6.45l-.07.03-.843.414.831,1.7.809-.4,1.589-.632h.022l.957-.292Zm19.084,2-.983,1.611L41.2,10.149l1.308.979,1.131-1.515L42.282,8.6,42.2,8.553Zm-24.465.355-.673.4-.063.041L13.741,9.281l-.055.044-.939.761,1.194,1.467.909-.739,1.386-.965.03-.018.643-.381ZM45.142,10.9l-1.275,1.4.676.613,1.478,1.63.292.392L47.833,13.8l-.333-.443-.059-.07-1.526-1.674-.063-.063Zm-33.852.506-.351.325-.048.052-1.2,1.323-.048.055-.928,1.194,1.493,1.16.883-1.135h.007l1.179-1.3.018-.018.3-.281Zm14.646.532h5.107a4.881,4.881,0,0,1,5.015,4.8v2.742h-1.9V16.546a.946.946,0,1,0-1.892,0v2.938H24.7V16.546a.946.946,0,1,0-1.892,0v2.938H20.921V16.742A4.881,4.881,0,0,1,25.936,11.942ZM49,15.4l-1.615.983,1.068,1.763.71,1.471,1.7-.824-.728-1.508-.044-.081Zm-41.394.573-.1.163-.037.063-.883,1.574-.033.063L5.8,19.462l1.715.795.721-1.56.015-.026.828-1.489.011-.018.1-.14Zm44,4.66-1.778.65.336.913.566,2.2.052.351,1.874-.285-.063-.4-.018-.092L51.994,21.7l-.026-.092Zm-46.52.743L4.6,23.1l-.018.07L4.214,25l-.015.074-.015.126,1.881.225L6.08,25.3l.347-1.722.48-1.682Zm23.386,1.837a.946.946,0,0,0-.931.961v7.114l-8.082,5.407a.946.946,0,1,0,1.05,1.571l8-5.351,7.953,5.351a.947.947,0,1,0,1.057-1.571l-8.086-5.44V24.174a.946.946,0,0,0-.961-.961Zm24.468,3.108-1.726.27h-.144v.022l.118,2.347-.111,2.221,1.892.1.114-2.269-.946-.044.946-.048-.122-2.421-.011-.1Zm-48.981.832-.07,1.777v.085l.1,2,1.888-.1-.1-1.963.067-1.729Zm2.155,5.554-1.87.281.137.891.018.1.584,2.262.026.1.188.51,1.778-.651-.166-.451-.565-2.2Zm44.706.259-.089.577-.566,2.2-.255.695,1.774.651.281-.758.026-.093.584-2.265.018-.092.1-.628ZM11.446,35.519A5.22,5.22,0,0,0,7.6,44.234,6.757,6.757,0,0,0,2,50.8v3.688a.946.946,0,0,0,.946.946H6.509a.946.946,0,0,0,.44,0h9.021a.946.946,0,0,0,.44,0h3.57a.946.946,0,0,0,.946-.946V50.8A6.757,6.757,0,0,0,15.3,44.23a5.221,5.221,0,0,0-3.851-8.711Zm34.055,0a5.22,5.22,0,0,0-3.847,8.714,6.757,6.757,0,0,0-5.6,6.567v3.688a.946.946,0,0,0,.946.946h3.566a.946.946,0,0,0,.436,0h9.025a.946.946,0,0,0,.436,0h3.57a.946.946,0,0,0,.946-.946V50.8a6.757,6.757,0,0,0-5.628-6.571A5.221,5.221,0,0,0,45.5,35.519ZM11.446,37.412a3.349,3.349,0,1,1-3.3,3.348A3.309,3.309,0,0,1,11.446,37.412Zm34.055,0a3.349,3.349,0,1,1-3.3,3.348A3.309,3.309,0,0,1,45.5,37.412ZM8.907,46h5.111a4.881,4.881,0,0,1,5.015,4.8v2.742h-1.9V50.6a.946.946,0,1,0-1.892,0v2.938H7.676V50.6a.946.946,0,1,0-1.892,0v2.938H3.892V50.8A4.881,4.881,0,0,1,8.907,46Zm34.055,0h5.111a4.881,4.881,0,0,1,5.015,4.8v2.742h-1.9V50.6a.946.946,0,1,0-1.892,0v2.938H41.731V50.6a.946.946,0,1,0-1.892,0v2.938H37.947V50.8A4.881,4.881,0,0,1,42.962,46Zm-21.25,3.518-.336,1.87,1.2.344.07.019,1.826.37.074.018.126.019.229-1.881-.122-.019-1.722-.351Zm13.5.026-2.2.558-.839.129.281,1.874.891-.137.092-.019,2.269-.58.092-.026Zm-4.819.917-1.962.093-1.73-.07-.081,1.892,1.777.074h.085l2-.1Z" transform="translate(-2 -1.461)"/></svg>